# xmcd
#
# Track frame offsets: 
#        150
#        13256
#        25209
#        34539
#        49220
#        59877
#        73202
#        83727
#        93852
#        104731
#        117785
#        127825
#        138310
#        151428
#        163182
#        174706
#        187287
#        197575
#        209742
#        222087
#        234279
#        247028
#        260361
#        276696
#        288884
#        302187
#        315941
#        329375
#        340579
#        351632
#        361411
#
# Disc length: 4991 seconds
#
# Revision: 2
# Processed by: cddbd v1.5.2PL0 Copyright (c) Steve Scherf et al.
# Submitted via: ExactAudioCopyFreeDBPlugin 1.0
#
DISCID=e9137d1f
DTITLE=Various Artist - Dim Lights, Thick Smoke And Hillbilly Music: 
DTITLE=Country and Western Hit Parade 1966
DYEAR=1966
DGENRE=Country
TTITLE0=Jim Reeves - Distant Drums
TTITLE1=Bobby Bare - The Streets Of Baltimore
TTITLE2=MartyRobbins - The Shoe Goes On The Other Foot Tonight
TTITLE3=Jeannie Seely - Don't Touch Me
TTITLE4=Mel Tillis - Stateside
TTITLE5=David Houston - Almost Persuaded
TTITLE6=Bill Anderson - I Get The Fever
TTITLE7=Loretta Lynn - You Ain't Woman Enough
TTITLE8=Roger Miller - Husbands And Wives
TTITLE9=Merle Haggard - Swinging Doors
TTITLE10=Don Gibson - Funny, Familiar Forgotten Feelings
TTITLE11=Buck Owens - Waitin' In Your Welfare Line
TTITLE12=Nat Stuckey - Sweet Thang
TTITLE13=Jack Greene - There Goes My Everything
TTITLE14=Dallas Frazier - Elvira
TTITLE15=Merle Haggard - The Bottle Let Me Down
TTITLE16=Roger Miller - I've Been A Long Time Leavin' (But I'll Be A L
TTITLE16=ong Time Gone)
TTITLE17=Wilma Burgess - Misty Blue
TTITLE18=Faron Young - Unmitigated Gall
TTITLE19=Eddy Arnold - I Want To Go With You
TTITLE20=Johnny Cash - The One On The Right Is On The Left
TTITLE21=Johnny Paycheck - (Pardon Me) I've Got Someone To Kill
TTITLE22=Ray Price - Touch My Heart
TTITLE23=The Browns - I'd Just Be Fool Enough
TTITLE24=Merle Haggard - The Fugitive
TTITLE25=Porter Wagoner - Skid Row Joe
TTITLE26=Tammy Wynette - Apartment #9
TTITLE27=Buck Owens - Open Up Your Heart
TTITLE28=Waylon Jennings - Anita You're Dreaming
TTITLE29=Loretta Lynn - Don't Come Home A Drinkin' (With Lovin' Your M
TTITLE29=ind)
TTITLE30=Jim Reeves - Distant Drums (Undubbed)
EXTD=YEAR: 1966
EXTT0=
EXTT1=
EXTT2=
EXTT3=
EXTT4=
EXTT5=
EXTT6=
EXTT7=
EXTT8=
EXTT9=
EXTT10=
EXTT11=
EXTT12=
EXTT13=
EXTT14=
EXTT15=
EXTT16=
EXTT17=
EXTT18=
EXTT19=
EXTT20=
EXTT21=
EXTT22=
EXTT23=
EXTT24=
EXTT25=
EXTT26=
EXTT27=
EXTT28=
EXTT29=
EXTT30=
PLAYORDER=
